/* XPM */
static char *bitcoin16[] = {
/* columns rows colors chars-per-pixel */
"16 16 102 2 ",
"   c #972626",
".  c #9A2625",
"X  c #982626",
"o  c #992626",
"O  c #9A2626",
"+  c #9C2726",
"@  c #9E2826",
"#  c #9F2826",
"$  c #A12827",
"%  c #A32927",
"&  c #A42927",
"*  c #A52927",
"=  c #A62927",
"-  c #A72A27",
";  c #A92A27",
":  c #AA2B27",
">  c #AC2B28",
",  c #AD2B28",
"<  c #B02C28",
"1  c #B12C28",
"2  c #B22D28",
"3  c #B72E28",
"4  c #B62E29",
"5  c #B82E29",
"6  c #BB2E28",
"7  c #BA2E29",
"8  c #BE2F29",
"9  c #B4332F",
"0  c #C92F26",
"q  c #C03029",
"w  c #C13029",
"e  c #C23129",
"r  c #C53129",
"t  c #C5312A",
"y  c #C6312A",
"u  c #C7322A",
"i  c #CB3229",
"p  c #C9322A",
"a  c #CA332A",
"s  c #CB332A",
"d  c #CD332A",
"f  c #CE342A",
"g  c #CF342B",
"h  c #D33228",
"j  c #D63328",
"k  c #D73328",
"l  c #D1342A",
"z  c #D0352B",
"x  c #D3352B",
"c  c #D43429",
"v  c #D53429",
"b  c #D73429",
"n  c #D4352A",
"m  c #D4352B",
"M  c #D5352B",
"N  c #D6352B",
"B  c #D6362B",
"V  c #D7362B",
"C  c #D83328",
"Z  c #D83429",
"A  c #D83529",
"S  c #D8352A",
"D  c #D8362B",
"F  c #D9362B",
"G  c #DA362B",
"H  c #D8382E",
"J  c #C73C35",
"K  c #C44039",
"L  c #D74339",
"P  c #DC483E",
"I  c #BC4945",
"U  c #B95351",
"Y  c #BC6B6A",
"T  c #C14843",
"R  c #DC4B41",
"E  c #C7514B",
"W  c #CF5F5A",
"Q  c #DC5951",
"!  c #E06158",
"~  c #D06762",
"^  c #CB706D",
"/  c #E4726B",
"(  c #CA8281",
")  c #CC8482",
"_  c #DF9490",
"`  c #ED9C97",
"'  c #EEA7A2",
"]  c #E4C1C0",
"[  c #F0C7C5",
"{  c #F7D3D1",
"}  c #F7D5D3",
"|  c #F2E5E5",
" . c #F3E7E7",
".. c #F6EBEB",
"X. c #F5ECEC",
"o. c #F7F0F0",
"O. c #F8F3F3",
"+. c #FDF4F3",
"@. c #FDFAF9",
"#. c #FEFCFC",
"$. c white",
"%. c None",
/* pixels */
"%.%.%.%.%.%.%.  o %.%.%.%.%.%.%.",
"%.%.%.%.o o o     - p M %.%.%.%.",
"%.%.%.@ o o + - - : 2 a F %.%.%.",
"%.%.o 3 3 K l M M M M F M F %.%.",
"%.  $ d 6 ) ` P C F F M d M F %.",
"%.+ u F 0 Y @.{ / H C M d 5 a %.",
"%.- M F h U o.$.+.' R F M u - %.",
"$ , M F M I  .$.$.$.} ! F F 2 %.",
"e < M F M T | $.$.#.[ Q F F e %.",
"%.8 d F C E X.$..._ L C F F u %.",
"%.l d F C ~ O.] W l F M F F 6 %.",
"%.F M F M ^ ( J j F F F F p - %.",
"%.%.F F d 9 d F M F M F d > %.%.",
"%.%.%.M l M F F F F F u : %.%.%.",
"%.%.%.%.F F M F F M q - %.%.%.%.",
"%.%.%.%.%.%.%.%.%.%.%.%.%.%.%.%."
};
