/* XPM */
static char *bitcoin64[] = {
/* columns rows colors chars-per-pixel */
"64 64 86 1 ",
"  c #972525",
". c #992626",
"X c #9F2827",
"o c #9B2B2B",
"O c #9E3434",
"+ c #A02725",
"@ c #A32927",
"# c #AA2A27",
"$ c #A72C2A",
"% c #AD2B28",
"& c #BA2D26",
"* c #B32D28",
"= c #BB2F29",
"- c #BE3029",
"; c #A23B3B",
": c #A93F3E",
"> c #C02E27",
", c #C12F28",
"< c #C43129",
"1 c #CC332A",
"2 c #D4352B",
"3 c #D8362B",
"4 c #D8392E",
"5 c #CC3D36",
"6 c #D93C31",
"7 c #CE443D",
"8 c #DB453B",
"9 c #A54242",
"0 c #AC4240",
"q c #A94A4A",
"w c #BD4641",
"e c #AD5252",
"r c #B15B5B",
"t c #B56363",
"y c #B76868",
"u c #BB6B6B",
"i c #BB7171",
"p c #DD4D43",
"a c #DC534A",
"s c #DF5F56",
"d c #E05E55",
"f c #CE605B",
"g c #E06057",
"h c #C86966",
"j c #C27E7E",
"k c #E36F67",
"l c #E4736B",
"z c #E57C75",
"x c #E6807A",
"c c #C48383",
"v c #C78888",
"b c #D38986",
"n c #CD9696",
"m c #D39D9D",
"M c #D99A98",
"N c #E18E89",
"B c #EA918B",
"V c #EC9B95",
"C c #D4A4A4",
"Z c #D7ABAB",
"A c #D8AFAF",
"S c #DAB2B2",
"D c #EEA6A1",
"F c #EFACA7",
"G c #EFAFAA",
"H c #F0B2AE",
"J c #E1B3B2",
"K c #E1BFBF",
"L c #F1B8B4",
"P c #E2C2C2",
"I c #E9C8C7",
"U c #E6CBCB",
"Y c #F4C7C4",
"T c #F5CBC8",
"R c #E9D2D2",
"E c #EFDDDD",
"W c #F7D5D3",
"Q c #F7D8D6",
"! c #F9DEDC",
"~ c #F2E3E3",
"^ c #FAE6E5",
"/ c #F5EBEB",
"( c #F9EDED",
") c #FBF4F3",
"_ c #FFFFFF",
"` c None",
/* pixels */
"````````````````````````````````````````````````````````````````",
"````````````````````````````````````````````````````````````````",
"``````````````````````````... ......*```````````````````````````",
"```````````````````````...... .o....X,343```````````````````````",
"```````````````````` ....... .   .....,33333````````````````````",
"``````````````````....  .. . .  ......X-323333``````````````````",
"```````````````` o...  .......... ......&2433333````````````````",
"```````````````...  .........  ..........%2333333```````````````",
"````````````` .... .... ... ...      .....X=233333``````````````",
"````````````...  .......  . ...       ..  ..*1333333````````````",
"``````````` ...  . .......    .X.Xo@@@@@@@@X.@=233333```````````",
"``````````.X$@.  .....  .o@#*&>,11122122212111<1333333``````````",
"`````````...=21-%X . X#*,122333343333333233333333233333`````````",
"````````.....<321<=$&1233333333333333333333333333333333`````````",
"````````. .  #23==13343333333333333333333333333333333333````````",
"```````.......131@@=5Ns3333333333333333333343333333333333```````",
"``````.. ....$133= .@M^V833333333333333333333333333333333```````",
"``````.... .*23331X. t)_Wz63333333333333333333112333333333``````",
"`````.... .=233323%. ;E__)Ld3333333333333333332<*,263333333`````",
"`````... .=2233333-...S____^B83333333333333333331$%<2333333`````",
"````.....%233333331+. i______Tk4333333323333333331#.%1333333````",
"````....@1333333333*. r)______)Dp333333333333333332% X*23333````",
"```` ...=3333333333,. 9~________Qz433333333333333332$  $1233````",
"```..  o133333333331o OU_________)Fa33333333333333332# .+=333```",
"```. . *233333333332# .A___________!x63333333333333331@ ..*23```",
"```....-333334333333*. n____________)La3333333333333331@...$1```",
"``. . .1333332333333>. j______________!z433333333333333-....$```",
"``....+23333333333331. u_______________)Fp33333333333332% ...```",
"``... $23333333333332@ r)________________Wk43333333333331X....``",
"``+.  #23333333333332$ q(_________________)V8333333333332* ...``",
"``*.. $23333333333333* q/___________________Yg33333333333<.. .``",
"``<o. $23333333333333= 9~____________________^k33333333332$ ..``",
"``2#  @23333333333333, :~____________________Sp32333323333&   ``",
"``3-. X13333333333333, 9~__________________~b5233333333333<...``",
"``32$ .<33333333333331 9~_________________Us233333333333331X .``",
"``22- .=33333333333331X0~_______________(n72233333333333332X..``",
"``332@ #33333333333331.e)______________Rh133333333333333332+.```",
"```33= @22333333333331.r)____________)mw2333333333333333331o.```",
"```332$.<3333333233332.u____________Ru-23333333333333333331..```",
"```333<X*3333333333331.v__________(m0>22333333333333333333<..```",
"```3333=@1333333333331XC_________Ut$1333233332433333333333* ````",
"````3331$-333333333331oP_______/n;*13333333333333333333322@ ````",
"````3333<*23333333333=;E______SrX&23333333333333333333333<..````",
"````33332<13333333333&e)____Ec;X,233333333333333333333322# `````",
"`````3333213333333333%j___(Zq %1323333333333333333333333<..`````",
"`````3333342332333332#Z__Uyo *23333333333333333333333332@ ``````",
"``````333333333333331:E^vO +>23333333333333333333333332*..``````",
"``````33333333333333&tCq  #133323333333333333333333342<..```````",
"```````3333332433432%;. .*233333332333333333333333332<o..```````",
"````````333333333332+  @<2323334333333333333333333331@..````````",
"`````````3333333332<. #13333333333333333333333334231@..`````````",
"`````````3333333333*X*23333333333333333342333333331@ .``````````",
"``````````333333331%<3333333333333433333333333333<@  ```````````",
"```````````3333333113333333333333333333333333333-+ .````````````",
"````````````33333333333233333333333333333333331=. .`````````````",
"``````````````33333333333333333333333333333321#...``````````````",
"```````````````33333333333333323333333333332-o...```````````````",
"`````````````````33333333333333333333333321%...`````````````````",
"``````````````````33333333333333333333332=@ .```````````````````",
"`````````````````````333343333333333332<@  `````````````````````",
"```````````````````````333333333333321%X````````````````````````",
"````````````````````````````33333333````````````````````````````",
"````````````````````````````````````````````````````````````````",
"````````````````````````````````````````````````````````````````"
};
