/* XPM */
static char *bitcoin32[] = {
/* columns rows colors chars-per-pixel */
"32 32 181 2 ",
"   c #972626",
".  c #9B2423",
"X  c #982626",
"o  c #992626",
"O  c #982727",
"+  c #9A2626",
"@  c #9A2726",
"#  c #9B2726",
"$  c #9C2524",
"%  c #9C2726",
"&  c #9D2726",
"*  c #9F2827",
"=  c #9E2C2C",
"-  c #9F3738",
";  c #A42624",
":  c #A02827",
">  c #A12827",
",  c #A22927",
"<  c #A32927",
"1  c #A42927",
"2  c #A52927",
"3  c #A62927",
"4  c #A62A27",
"5  c #A72A27",
"6  c #A92926",
"7  c #A82A27",
"8  c #A92A27",
"9  c #AB2B27",
"0  c #AC2A27",
"q  c #A62F2D",
"w  c #AB2B28",
"e  c #AD2B28",
"r  c #AE2B28",
"t  c #AE2C28",
"y  c #AF2C28",
"u  c #B02925",
"i  c #B12B27",
"p  c #B72C26",
"a  c #BB2D27",
"s  c #B12C28",
"d  c #B32D28",
"f  c #B42D28",
"g  c #B52D28",
"h  c #B62D28",
"j  c #B62E28",
"k  c #B72E28",
"l  c #B82E28",
"z  c #B82E29",
"x  c #B92E29",
"c  c #BB2E28",
"v  c #BA2E29",
"b  c #BA2F29",
"n  c #BB2F29",
"m  c #BC2F29",
"M  c #BD2F29",
"N  c #BE3029",
"B  c #BC312B",
"V  c #AC3A39",
"C  c #C42E27",
"Z  c #C02F28",
"A  c #C32F28",
"S  c #C73027",
"D  c #CB3027",
"F  c #CD3127",
"G  c #C03029",
"H  c #C13029",
"J  c #C33129",
"K  c #C43129",
"L  c #C53129",
"P  c #C5312A",
"I  c #C6312A",
"U  c #C7322A",
"Y  c #C93128",
"T  c #C8322A",
"R  c #C9322A",
"E  c #CA322A",
"W  c #CA332A",
"Q  c #CB332A",
"!  c #CC3128",
"~  c #CD3128",
"^  c #CD3229",
"/  c #CC332A",
"(  c #CD332A",
")  c #CE342A",
"_  c #CF342A",
"`  c #CE372E",
"'  c #D03228",
"]  c #D73328",
"[  c #D0342A",
"{  c #D1342A",
"}  c #D2342A",
"|  c #D2342B",
" . c #D2352B",
".. c #D3352B",
"X. c #D53429",
"o. c #D73429",
"O. c #D4352B",
"+. c #D5352B",
"@. c #D6352B",
"#. c #D6362B",
"$. c #D7362B",
"%. c #D5372C",
"&. c #D83328",
"*. c #D83428",
"=. c #D83429",
"-. c #D8352A",
";. c #D8362A",
":. c #D8362B",
">. c #D9362B",
",. c #C23730",
"<. c #D93C31",
"1. c #DA4035",
"2. c #D84137",
"3. c #DB4339",
"4. c #DB453B",
"5. c #DB483E",
"6. c #A74342",
"7. c #A84140",
"8. c #AB4443",
"9. c #A94A4A",
"0. c #BE4743",
"q. c #BF4844",
"w. c #B04C4B",
"e. c #AC5050",
"r. c #AF5858",
"t. c #B65C5B",
"y. c #B85C5B",
"u. c #BB6666",
"i. c #B96D6D",
"p. c #D24C45",
"a. c #D54E46",
"s. c #DD4B41",
"d. c #DF5B52",
"f. c #E1655D",
"g. c #E1675E",
"h. c #DA716B",
"j. c #C27675",
"k. c #CB7371",
"l. c #E57B73",
"z. c #C78A8A",
"x. c #C88D8D",
"c. c #CE9A9A",
"v. c #D09696",
"b. c #EA908A",
"n. c #EA928C",
"m. c #EB9A94",
"M. c #E19D9A",
"N. c #D4A3A3",
"B. c #DFA9A8",
"V. c #D8AEAE",
"C. c #F1B9B5",
"Z. c #F1B9B6",
"A. c #E3C3C3",
"S. c #E6CBCB",
"D. c #F4C9C6",
"F. c #F2CAC8",
"G. c #F5CBC8",
"H. c #ECD7D7",
"J. c #ECD8D8",
"K. c #F0D7D6",
"L. c #F2E4E4",
"P. c #F3E6E6",
"I. c #FAE7E6",
"U. c #F5E9E9",
"Y. c #F6ECEC",
"T. c #F6EDED",
"R. c #FBECEA",
"E. c #FCEEED",
"W. c #F8F2F2",
"Q. c #F9F2F2",
"!. c #FAF5F5",
"~. c #FAF6F6",
"^. c #FFF9F9",
"/. c #FEFCFC",
"(. c #FFFCFC",
"). c #FEFDFD",
"_. c #FFFDFD",
"`. c #FFFEFE",
"'. c #FEFFFF",
"]. c white",
"[. c None",
/* pixels */
"[.[.[.[.[.[.[.[.[.[.[.[.[.[.[.[.[.[.[.[.[.[.[.[.[.[.[.[.[.[.[.[.",
"[.[.[.[.[.[.[.[.[.[.[.[.  #     #   s $.[.[.[.[.[.[.[.[.[.[.[.[.",
"[.[.[.[.[.[.[.[.[.# #               & M :.:.[.[.[.[.[.[.[.[.[.[.",
"[.[.[.[.[.[.[.[.          #   # #   # # h [ >.$.[.[.[.[.[.[.[.[.",
"[.[.[.[.[.[.  #           #   #           5 U $.:.:.[.[.[.[.[.[.",
"[.[.[.[.[.# : # #     # & > 8 0 s h v v v h v R :.:.:.[.[.[.[.[.",
"[.[.[.[.  # h R p 8 i Z R [ $.$.>.>.>.>.>.>.$.$.:.:.:.:.[.[.[.[.",
"[.[.[.[.    > [ M c a.s.*.>.$.>.>.$.>.$.$.>.>.$.:.:.:.:.[.[.[.[.",
"[.[.[.#   # s [ R & t.F.l.<.] $.>.$.>.$.>.$.>.[ +.:.:.:.:.[.[.[.",
"[.[.    # h $.>.+.8 - H.(.Z.d.>.$.>.$.>.$.>.>.{ N U +.:.:.[.[.[.",
"[.[.    t $.>.$.>.M # V.`.`.I.n.3.] >.$.>.$.$.>.[ h t W :.:.[.[.",
"[.[.# & R >.$.>.>.R . z.`.`.`.`.D.f.$.>.$.>.>.$.:.+.s * N +.[.[.",
"[.#   8 $.>.>.$.$.$.; i.(.`.`.`.`.E.m.4.&.>.$.>.:.:...w # s [.[.",
"[.    h >.>.$.>.$.$.0 r.!.`.`.`.`.`.`.G.f.>.>.$.:.:.:._ > # > [.",
"[.#   M >.$.>.$.$.>.a 9.Y.`.`.`.`.`.`.`.R.b.<.>.:.:.:.:.v   # [.",
"[.8   M >.>.$.>.>.>.A 6.P.`.`.`.`.`.`.`.`.`.Z.5.>.:.:.:._ >   [.",
"[.M # h >.>.$.>.>.>.D 7.P.`.`.`.`.`.`.`.`.Q.M.2.$.>.$.>.$.e   [.",
"[.[ 5 e $.$.>.$.$.>.D 8.P.`.`.`.`.`.`.`.K.h.$.$.>.$.>.$.>.p   [.",
"[.>.M 5 [ >.$.>.>.>.R w.Y.`.`.`.`.`.!.B.p.] >.$.$.>.$.>.>.h   [.",
"[.>.$.e U >.>.$.$.>._ t.!.`.`.`.`.J.k.` $.>.$.>.>.$.>.$.>.s [.[.",
"[.[.>.R v >.$.>.>.>.D j.`.`.`.W.N.q.F >.>.>.>.$.>.$.>.$.[ 5 [.[.",
"[.[.>.>.R [ >.$.$.>.S v.`.`.S.u.B $.>.>.$.>.$.>.$.>.$.$.U @ [.[.",
"[.[.[.>.$.[ >.$.>.>.,.A.U.x.V C $.$.>.$.>.$.>.$.>.$.$.$.8 [.[.[.",
"[.[.[.$.$.>.$.>.$.$.q.c.e.e _ :.$.$.$.>.$.>.$.>.$.>.>.h # [.[.[.",
"[.[.[.[.>.$.>.$.+.[ q * h ..:.:.:.:.:.:.:.:.:.:.>.$.G & [.[.[.[.",
"[.[.[.[.$.>.$.>.:.U w U :.+.:.:.:.:.:.:.:.:.:.:.+.A & [.[.[.[.[.",
"[.[.[.[.[.>.>.$.:.U _ :.:.:.:.:.:.:.:.:.:.:.:.+.N & [.[.[.[.[.[.",
"[.[.[.[.[.[.$.>.:.:.:.:.:.:.:.:.:.:.:.:.:.:.[ s # [.[.[.[.[.[.[.",
"[.[.[.[.[.[.[.[.:.:.:.:.:.:.:.:.:.:.:.:.+.U 4 # [.[.[.[.[.[.[.[.",
"[.[.[.[.[.[.[.[.[.[.:.:.:.:.:.:.:.:.:.[ h & [.[.[.[.[.[.[.[.[.[.",
"[.[.[.[.[.[.[.[.[.[.[.[.[.:.:.:.:.:._ [.[.[.[.[.[.[.[.[.[.[.[.[.",
"[.[.[.[.[.[.[.[.[.[.[.[.[.[.[.[.[.[.[.[.[.[.[.[.[.[.[.[.[.[.[.[."
};
